<svg width="48.000000" height="48.000000" viewBox="0 0 48 48" fill="none" xmlns="http://www.w3.org/2000/svg" xmlns:xlink="http://www.w3.org/1999/xlink">
	<desc>
			Created with Pixso.
	</desc>
	<defs/>
	<rect id="Rectangle 1" x="0.500000" y="0.500000" rx="9.000000" width="47.000000" height="47.000000" stroke="#000000" stroke-opacity="1.000000" stroke-width="1.000000"/>
	<path id="path" d="M23.99 5C23.13 5.97 22.61 7.25 22.61 8.66C22.66 11.75 23.04 14.83 23.07 17.91C23.14 20.79 22.28 23.49 21.25 26.13C20.9 26.86 20.52 27.57 20.15 28.28L19.05 28.06C18.06 27.86 17.41 26.88 17.61 25.88C17.78 25.01 18.55 24.39 19.4 24.39L19.8 24.44L18.91 16.89C18.61 13.53 16.9 10.58 14.37 8.66C13.94 8.33 13.47 8.03 13 7.77L13 34.57L19.13 34.57C19.58 37.08 20.95 39.27 22.88 40.77C23.34 41.08 23.72 41.5 24 42C24.27 41.5 24.65 41.08 25.11 40.77C27.04 39.26 28.41 37.08 28.86 34.57L35 34.57L35 7.77C34.52 8.03 34.05 8.33 33.62 8.66C31.09 10.58 29.38 13.53 29.08 16.89L28.19 24.44L28.59 24.39C29.44 24.4 30.21 25.01 30.38 25.88C30.58 26.88 29.93 27.86 28.94 28.06L27.84 28.28C27.47 27.57 27.09 26.86 26.74 26.13C25.7 23.49 24.85 20.79 24.92 17.91C24.95 14.82 25.33 11.74 25.38 8.66C25.38 7.25 24.86 5.98 24 5L23.99 5ZM14.82 11.63C16.01 13.03 16.8 14.78 17.04 16.71L17.77 22.94C16.83 23.41 16.12 24.27 15.85 25.32L14.82 25.32L14.82 11.63ZM33.15 11.63L33.15 25.32L32.12 25.32C31.85 24.27 31.14 23.41 30.2 22.93L30.93 16.71C31.17 14.78 31.97 13.03 33.15 11.63ZM23.99 24.15C24.48 25.77 25.16 27.32 26 28.75C25.2 29 24.5 29.47 23.99 30.12C23.47 29.47 22.78 29 21.98 28.75C22.82 27.32 23.5 25.77 23.99 24.15ZM14.82 27.17L15.86 27.17C16.19 28.45 17.18 29.46 18.43 29.81L19.31 30.02C19.07 30.88 18.94 31.78 18.94 32.73L14.82 32.73L14.82 27.17ZM32.12 27.17L33.16 27.17L33.16 32.73L29.03 32.73C29.03 31.79 28.9 30.88 28.67 30.02L29.55 29.81C30.8 29.46 31.79 28.45 32.12 27.17ZM21.1 30.44C22.21 30.6 23.07 31.56 23.07 32.72L20.78 32.72C20.78 31.93 20.89 31.17 21.1 30.44ZM26.87 30.44C27.08 31.17 27.19 31.93 27.19 32.72L24.9 32.72C24.9 31.56 25.76 30.6 26.87 30.44ZM20.99 34.58L23.07 34.58L23.07 38.47C22.06 37.4 21.33 36.07 20.99 34.58ZM24.9 34.58L26.99 34.58C26.65 36.07 25.92 37.4 24.9 38.47L24.9 34.58Z" fill="#000000" fill-opacity="1.000000" fill-rule="nonzero"/>
</svg>
